<?xml version="1.0" encoding="iso-8859-1"?>
<!-- Uploaded to: SVG Repo, www.svgrepo.com, Generator: SVG Repo Mixer Tools -->
<svg fill="#000000" height="800px" width="800px" version="1.1" id="Layer_1" xmlns="http://www.w3.org/2000/svg" xmlns:xlink="http://www.w3.org/1999/xlink" 
	 viewBox="0 0 512 512" xml:space="preserve">
<g>
	<g>
		<path d="M443.733,0H68.267c-4.71,0-8.533,3.814-8.533,8.533v494.933c0,4.719,3.823,8.533,8.533,8.533h375.467
			c4.71,0,8.533-3.814,8.533-8.533V8.533C452.267,3.814,448.444,0,443.733,0z M435.2,494.933H76.8V17.067h358.4V494.933z"/>
	</g>
</g>
<g>
	<g>
		<path d="M401.067,42.667H110.933c-4.71,0-8.533,3.814-8.533,8.533v110.933c0,4.719,3.823,8.533,8.533,8.533h290.133
			c4.71,0,8.533-3.814,8.533-8.533V51.2C409.6,46.481,405.777,42.667,401.067,42.667z M392.533,153.6H119.467V59.733h273.067V153.6z
			"/>
	</g>
</g>
<g>
	<g>
		<path d="M170.667,238.933h-34.133c-4.71,0-8.533,3.814-8.533,8.533V281.6c0,4.719,3.823,8.533,8.533,8.533h34.133
			c4.71,0,8.533-3.814,8.533-8.533v-34.133C179.2,242.748,175.377,238.933,170.667,238.933z M162.133,273.067h-17.067V256h17.067
			V273.067z"/>
	</g>
</g>
<g>
	<g>
		<path d="M273.067,238.933h-34.133c-4.71,0-8.533,3.814-8.533,8.533V281.6c0,4.719,3.823,8.533,8.533,8.533h34.133
			c4.71,0,8.533-3.814,8.533-8.533v-34.133C281.6,242.748,277.777,238.933,273.067,238.933z M264.533,273.067h-17.067V256h17.067
			V273.067z"/>
	</g>
</g>
<g>
	<g>
		<path d="M375.467,238.933h-34.133c-4.71,0-8.533,3.814-8.533,8.533V281.6c0,4.719,3.823,8.533,8.533,8.533h34.133
			c4.71,0,8.533-3.814,8.533-8.533v-34.133C384,242.748,380.177,238.933,375.467,238.933z M366.933,273.067h-17.067V256h17.067
			V273.067z"/>
	</g>
</g>
<g>
	<g>
		<path d="M170.667,315.733h-34.133c-4.71,0-8.533,3.814-8.533,8.533V358.4c0,4.719,3.823,8.533,8.533,8.533h34.133
			c4.71,0,8.533-3.814,8.533-8.533v-34.133C179.2,319.548,175.377,315.733,170.667,315.733z M162.133,349.867h-17.067V332.8h17.067
			V349.867z"/>
	</g>
</g>
<g>
	<g>
		<path d="M273.067,315.733h-34.133c-4.71,0-8.533,3.814-8.533,8.533V358.4c0,4.719,3.823,8.533,8.533,8.533h34.133
			c4.71,0,8.533-3.814,8.533-8.533v-34.133C281.6,319.548,277.777,315.733,273.067,315.733z M264.533,349.867h-17.067V332.8h17.067
			V349.867z"/>
	</g>
</g>
<g>
	<g>
		<path d="M375.467,315.733h-34.133c-4.71,0-8.533,3.814-8.533,8.533V358.4c0,4.719,3.823,8.533,8.533,8.533h34.133
			c4.71,0,8.533-3.814,8.533-8.533v-34.133C384,319.548,380.177,315.733,375.467,315.733z M366.933,349.867h-17.067V332.8h17.067
			V349.867z"/>
	</g>
</g>
<g>
	<g>
		<path d="M170.667,392.533h-34.133c-4.71,0-8.533,3.814-8.533,8.533V435.2c0,4.719,3.823,8.533,8.533,8.533h34.133
			c4.71,0,8.533-3.814,8.533-8.533v-34.133C179.2,396.348,175.377,392.533,170.667,392.533z M162.133,426.667h-17.067V409.6h17.067
			V426.667z"/>
	</g>
</g>
<g>
	<g>
		<path d="M273.067,392.533h-34.133c-4.71,0-8.533,3.814-8.533,8.533V435.2c0,4.719,3.823,8.533,8.533,8.533h34.133
			c4.71,0,8.533-3.814,8.533-8.533v-34.133C281.6,396.348,277.777,392.533,273.067,392.533z M264.533,426.667h-17.067V409.6h17.067
			V426.667z"/>
	</g>
</g>
<g>
	<g>
		<path d="M375.467,392.533h-34.133c-4.71,0-8.533,3.814-8.533,8.533V435.2c0,4.719,3.823,8.533,8.533,8.533h34.133
			c4.71,0,8.533-3.814,8.533-8.533v-34.133C384,396.348,380.177,392.533,375.467,392.533z M366.933,426.667h-17.067V409.6h17.067
			V426.667z"/>
	</g>
</g>
</svg>